# xmcd
#
# Track frame offsets:
#	150
#	16477
#	31110
#	47697
#	68532
#	82577
#	101645
#	114335
#	125460
#	140930
#	153520
#	172377
#	193067
#
# Disc length: 2741 seconds
#
# Revision: 0
# Processed by: cddbd v1.5.2PL0 Copyright (c) Steve Scherf et al.
# Submitted via: audiograbber 1.83.01
#
DISCID=ab0ab30d
DTITLE=Michal Tuèný - Po cestách toulavých
DYEAR=2000
DGENRE=Country
TTITLE0=Abych tu zil
TTITLE1=Indian Banjo (Cherokee Fiddle)
TTITLE2=Umìt se narodit
TTITLE3=Být hlidaèem rùzí
TTITLE4=Je mi líto (Heart Break Hotel)
TTITLE5=Mìsíèku (Cajun Monn)
TTITLE6=Tennessee Lullaby
TTITLE7=Cesty toulavý (On the Road Again)
TTITLE8=S proudem si plout
TTITLE9=V ulièkách mìsta Bakersfield (Streets of Bakersfield)
TTITLE10=Bájeèná zenská (Good Hearted Woman)
TTITLE11=Modrá z dzín
TTITLE12=Rovnou, tady rovnou (Roll On Buddy, Roll On)
EXTD=
EXTT0=
EXTT1=
EXTT2=
EXTT3=
EXTT4=
EXTT5=
EXTT6=
EXTT7=
EXTT8=
EXTT9=
EXTT10=
EXTT11=
EXTT12=
PLAYORDER=
